<svg width="632" height="132" viewBox="0 0 632 132" fill="none" xmlns="http://www.w3.org/2000/svg">
<rect width="132" height="132" rx="22" fill="url(#paint0_linear_566_399)"/>
<path d="M94.1583 41.4775L107.414 24H66.972C60.3231 24.0056 53.771 25.5935 47.8573 28.6326C41.9436 31.6717 36.8381 36.0746 32.9629 41.4775H94.1583Z" fill="#F5F5F5"/>
<path d="M95.5005 57.3832H70.3796L57.1655 74.5616H78.948C79.4135 74.5789 79.8778 74.6207 80.339 74.6867C82.2672 74.902 84.0484 75.8205 85.342 77.2665C86.6356 78.7125 87.3508 80.5846 87.3508 82.5248C87.3508 84.465 86.6356 86.3372 85.342 87.7832C84.0484 89.2292 82.2672 90.1477 80.339 90.3629H67.8203C54.3001 90.3629 43.3045 79.7499 43.3045 66.2297C43.3051 64.4709 43.4963 62.7173 43.8748 60.9997C44.1857 59.6646 44.5925 58.3537 45.0919 57.0771H25.987C24.6329 63.2247 24.6726 69.5975 26.1032 75.7278C27.5337 81.858 30.3189 87.5901 34.2543 92.5033C38.1896 97.4165 43.1753 101.386 48.8452 104.121C54.5152 106.855 60.7255 108.286 67.0205 108.306H95.5352C96.6846 108.316 97.8245 108.097 98.8893 107.665C99.9541 107.232 100.923 106.593 101.74 105.784C102.557 104.975 103.206 104.013 103.65 102.953C104.094 101.893 104.323 100.755 104.326 99.6059V66.2227C104.322 63.8819 103.392 61.6377 101.738 59.9812C100.084 58.3246 97.8413 57.3905 95.5005 57.3832Z" fill="#F5F5F5"/>
<path d="M199.598 103.221C194.324 103.221 189.588 102.391 185.389 100.73C181.222 99.0703 177.674 96.6615 174.744 93.5039C171.814 90.3138 169.568 86.4564 168.006 81.9316C166.443 77.4069 165.662 72.2799 165.662 66.5508V66.502C165.662 58.9499 167.029 52.4883 169.764 47.1172C172.498 41.7135 176.372 37.5632 181.385 34.666C186.43 31.7689 192.387 30.3203 199.256 30.3203C204.92 30.3203 209.917 31.3294 214.246 33.3477C218.576 35.3333 222.091 38.0677 224.793 41.5508C227.527 45.0339 229.285 48.9889 230.066 53.416L230.213 54.0996H215.418L215.223 53.6113C214.051 50.1934 212.098 47.5404 209.363 45.6523C206.629 43.7643 203.276 42.8203 199.305 42.8203C195.431 42.8203 192.094 43.748 189.295 45.6035C186.528 47.4264 184.396 50.0957 182.898 53.6113C181.434 57.127 180.701 61.375 180.701 66.3555V66.4043C180.701 70.2129 181.141 73.6309 182.02 76.6582C182.898 79.653 184.168 82.1921 185.828 84.2754C187.521 86.3587 189.539 87.9538 191.883 89.0605C194.259 90.1673 196.912 90.7207 199.842 90.7207C203.032 90.7207 205.848 90.1348 208.289 88.9629C210.763 87.7585 212.7 86.082 214.1 83.9336C215.532 81.7526 216.313 79.2135 216.443 76.3164L216.492 75.291H200.379V64.3047H230.848V72.4102C230.848 77.1953 230.132 81.4922 228.699 85.3008C227.299 89.1094 225.249 92.3483 222.547 95.0176C219.878 97.6868 216.606 99.7214 212.732 101.121C208.859 102.521 204.48 103.221 199.598 103.221ZM272.352 103.221C267.078 103.221 262.342 102.391 258.143 100.73C253.976 99.0703 250.428 96.6615 247.498 93.5039C244.568 90.3138 242.322 86.4564 240.76 81.9316C239.197 77.4069 238.416 72.2799 238.416 66.5508V66.502C238.416 58.9499 239.783 52.4883 242.518 47.1172C245.252 41.7135 249.126 37.5632 254.139 34.666C259.184 31.7689 265.141 30.3203 272.01 30.3203C277.674 30.3203 282.671 31.3294 287 33.3477C291.329 35.3333 294.845 38.0677 297.547 41.5508C300.281 45.0339 302.039 48.9889 302.82 53.416L302.967 54.0996H288.172L287.977 53.6113C286.805 50.1934 284.852 47.5404 282.117 45.6523C279.383 43.7643 276.03 42.8203 272.059 42.8203C268.185 42.8203 264.848 43.748 262.049 45.6035C259.282 47.4264 257.15 50.0957 255.652 53.6113C254.188 57.127 253.455 61.375 253.455 66.3555V66.4043C253.455 70.2129 253.895 73.6309 254.773 76.6582C255.652 79.653 256.922 82.1921 258.582 84.2754C260.275 86.3587 262.293 87.9538 264.637 89.0605C267.013 90.1673 269.666 90.7207 272.596 90.7207C275.786 90.7207 278.602 90.1348 281.043 88.9629C283.517 87.7585 285.454 86.082 286.854 83.9336C288.286 81.7526 289.067 79.2135 289.197 76.3164L289.246 75.291H273.133V64.3047H303.602V72.4102C303.602 77.1953 302.885 81.4922 301.453 85.3008C300.053 89.1094 298.003 92.3483 295.301 95.0176C292.632 97.6868 289.36 99.7214 285.486 101.121C281.613 102.521 277.234 103.221 272.352 103.221ZM320.789 79.7832V68.2598H338.074C342.306 68.2598 345.594 67.1855 347.938 65.0371C350.314 62.8561 351.502 59.7637 351.502 55.7598V55.6621C351.502 51.6582 350.314 48.582 347.938 46.4336C345.594 44.2852 342.306 43.2109 338.074 43.2109H320.789V31.541H341.688C346.635 31.541 350.965 32.5501 354.676 34.5684C358.387 36.554 361.268 39.3535 363.318 42.9668C365.402 46.5801 366.443 50.7956 366.443 55.6133V55.7109C366.443 60.5612 365.402 64.793 363.318 68.4062C361.268 72.0195 358.387 74.819 354.676 76.8047C350.965 78.7904 346.635 79.7832 341.688 79.7832H320.789ZM313.367 102V31.541H328.113V102H313.367ZM406.971 103.221C400.005 103.221 393.966 101.74 388.855 98.7773C383.777 95.8151 379.855 91.6159 377.088 86.1797C374.354 80.7109 372.986 74.2493 372.986 66.7949V66.6973C372.986 59.2103 374.37 52.7487 377.137 47.3125C379.904 41.8763 383.826 37.6934 388.904 34.7637C394.015 31.8014 400.037 30.3203 406.971 30.3203C413.937 30.3203 419.959 31.8014 425.037 34.7637C430.115 37.7259 434.038 41.9251 436.805 47.3613C439.572 52.765 440.955 59.2103 440.955 66.6973V66.7949C440.955 74.2493 439.572 80.7109 436.805 86.1797C434.038 91.6159 430.115 95.8151 425.037 98.7773C419.992 101.74 413.969 103.221 406.971 103.221ZM406.971 90.7207C410.877 90.7207 414.246 89.7441 417.078 87.791C419.91 85.8053 422.091 83.0221 423.621 79.4414C425.151 75.8607 425.916 71.6452 425.916 66.7949V66.6973C425.916 61.7819 425.135 57.5501 423.572 54.002C422.042 50.4212 419.845 47.6706 416.98 45.75C414.148 43.7969 410.812 42.8203 406.971 42.8203C403.13 42.8203 399.777 43.7806 396.912 45.7012C394.08 47.6217 391.883 50.3724 390.32 53.9531C388.79 57.5013 388.025 61.7493 388.025 66.6973V66.7949C388.025 71.6777 388.79 75.9095 390.32 79.4902C391.883 83.071 394.08 85.8379 396.912 87.791C399.744 89.7441 403.097 90.7207 406.971 90.7207ZM464.637 81.1504V63.7676H465.564L491.395 31.541H507.801L481.922 63.377H479.041L464.637 81.1504ZM450.477 102V31.541H465.223V102H450.477ZM491.98 102L469.373 68.6016L480.018 58.9336L509.607 102H491.98ZM515.809 102V31.541H562.488V43.6992H530.555V60.5938H560.682V72.1172H530.555V89.8418H562.488V102H515.809ZM573.133 102V31.541H602.234C607.508 31.541 612.016 32.4362 615.76 34.2266C619.536 36.0169 622.417 38.6048 624.402 41.9902C626.421 45.3431 627.43 49.3796 627.43 54.0996V54.1973C627.43 58.8197 626.274 62.9375 623.963 66.5508C621.684 70.1641 618.592 72.7357 614.686 74.2656L629.529 102H612.83L599.695 76.4629C599.598 76.4629 599.484 76.4629 599.354 76.4629C599.223 76.4629 599.093 76.4629 598.963 76.4629H587.879V102H573.133ZM587.879 65.2812H600.623C604.301 65.2812 607.166 64.3047 609.217 62.3516C611.3 60.3659 612.342 57.6478 612.342 54.1973V54.0996C612.342 50.7142 611.268 48.0286 609.119 46.043C606.971 44.0573 604.074 43.0645 600.428 43.0645H587.879V65.2812Z" fill="#F5F5F5"/>
<defs>
<linearGradient id="paint0_linear_566_399" x1="66" y1="0" x2="66" y2="132" gradientUnits="userSpaceOnUse">
<stop stop-color="#F84445"/>
<stop offset="1" stop-color="#922829"/>
</linearGradient>
</defs>
</svg>
