<svg width="328" height="76" viewBox="0 0 328 76" fill="none" xmlns="http://www.w3.org/2000/svg">
<path d="M122.374 42.1455C117.849 43.3174 113.943 43.9033 110.655 43.9033C104.422 43.9033 99.6283 42.2676 96.2754 38.9961C92.9388 35.7083 91.2705 31.0046 91.2705 24.8848C91.2705 18.8138 92.9388 14.1426 96.2754 10.8711C99.6283 7.59961 104.397 5.96387 110.582 5.96387C114.537 5.96387 118.46 6.42773 122.35 7.35547V13.2393C117.841 11.693 114.138 10.9199 111.241 10.9199C107.416 10.9199 104.462 12.1406 102.379 14.582C100.296 17.0234 99.2539 20.4821 99.2539 24.958C99.2539 29.2874 100.369 32.6891 102.599 35.1631C104.828 37.6208 107.905 38.8496 111.827 38.8496C112.69 38.8496 113.699 38.7275 114.854 38.4834V26.5938H122.374V42.1455ZM159.679 42.1455C155.154 43.3174 151.248 43.9033 147.96 43.9033C141.726 43.9033 136.933 42.2676 133.58 38.9961C130.243 35.7083 128.575 31.0046 128.575 24.8848C128.575 18.8138 130.243 14.1426 133.58 10.8711C136.933 7.59961 141.702 5.96387 147.887 5.96387C151.842 5.96387 155.764 6.42773 159.654 7.35547V13.2393C155.146 11.693 151.443 10.9199 148.546 10.9199C144.721 10.9199 141.767 12.1406 139.684 14.582C137.6 17.0234 136.559 20.4821 136.559 24.958C136.559 29.2874 137.674 32.6891 139.903 35.1631C142.133 37.6208 145.209 38.8496 149.132 38.8496C149.994 38.8496 151.004 38.7275 152.159 38.4834V26.5938H159.679V42.1455ZM168.126 43V6.86719H180.724C185.118 6.86719 188.251 7.60775 190.123 9.08887C192.011 10.5537 192.955 13.0114 192.955 16.4619C192.955 20.3682 191.694 23.4118 189.171 25.5928C186.664 27.7575 183.149 28.8398 178.624 28.8398H175.499V43H168.126ZM175.499 23.8838H176.964C179.535 23.8838 181.562 23.2897 183.043 22.1016C184.54 20.8971 185.289 19.2695 185.289 17.2188C185.289 13.6217 183.002 11.8232 178.429 11.8232H175.499V23.8838ZM210.045 43.6104C205.862 43.6104 202.534 42.349 200.06 39.8262C197.602 37.2871 196.373 33.8773 196.373 29.5967C196.373 25.2673 197.61 21.8493 200.084 19.3428C202.574 16.8363 205.951 15.583 210.216 15.583C214.496 15.583 217.874 16.8363 220.348 19.3428C222.838 21.8493 224.083 25.251 224.083 29.5479C224.083 33.9424 222.838 37.3848 220.348 39.875C217.857 42.3652 214.423 43.6104 210.045 43.6104ZM210.167 39.0938C214.317 39.0938 216.393 35.9118 216.393 29.5479C216.393 26.6344 215.839 24.3314 214.732 22.6387C213.642 20.946 212.136 20.0996 210.216 20.0996C208.312 20.0996 206.806 20.946 205.699 22.6387C204.609 24.3314 204.063 26.6507 204.063 29.5967C204.063 32.5101 204.609 34.8213 205.699 36.5303C206.79 38.2393 208.279 39.0938 210.167 39.0938ZM230.724 43V4.4502H237.95V28.6934H238.414L247.96 16.1934H253.966L245.152 27.668L256.725 43H247.936L238.414 29.5967H237.95V43H230.724ZM284.19 42.0967C280.756 43.1058 277.501 43.6104 274.425 43.6104C269.949 43.6104 266.417 42.3408 263.829 39.8018C261.241 37.2627 259.947 33.7959 259.947 29.4014C259.947 25.251 261.127 21.9144 263.487 19.3916C265.864 16.8525 268.997 15.583 272.887 15.583C276.809 15.583 279.674 16.82 281.48 19.2939C283.287 21.7679 284.19 25.6823 284.19 31.0371H267.564C268.053 36.1478 270.86 38.7031 275.987 38.7031C278.412 38.7031 281.147 38.1416 284.19 37.0186V42.0967ZM267.467 26.96H277.086C277.086 22.3864 275.613 20.0996 272.667 20.0996C269.672 20.0996 267.939 22.3864 267.467 26.96ZM291.661 43V16.1934H298.888V21.2471C300.759 17.471 303.608 15.583 307.433 15.583C307.888 15.583 308.336 15.6318 308.775 15.7295V22.1748C307.75 21.8005 306.798 21.6133 305.919 21.6133C303.038 21.6133 300.694 23.07 298.888 25.9834V43H291.661Z" fill="white"/>
<path d="M93.1743 71V61.6055H95.7642L98.0239 68.2134L100.354 61.6055H102.626V71H100.823V63.9097L98.5317 70.3716H96.9575L94.7104 63.8145V71H93.1743ZM105.761 71V61.6055H111.633V62.894H107.716V65.5156H110.928V66.7725H107.716V69.667H111.931V71H105.761ZM114.349 71V61.6055H118.392C119.848 61.6055 120.963 61.9927 121.737 62.7671C122.512 63.5373 122.899 64.6502 122.899 66.106C122.899 67.6548 122.488 68.8587 121.667 69.7178C120.846 70.5726 119.698 71 118.221 71H114.349ZM116.304 69.667H117.764C118.792 69.667 119.558 69.3835 120.061 68.8164C120.569 68.2451 120.823 67.3797 120.823 66.2202C120.823 65.3231 120.62 64.5762 120.214 63.9795C119.935 63.569 119.598 63.2855 119.205 63.1289C118.811 62.9723 118.238 62.894 117.484 62.894H116.304V69.667ZM125.437 71V61.6055H127.392V71H125.437ZM129.505 71L133.162 61.6055H135.117L138.773 71H136.767L135.789 68.4927H131.905L130.927 71H129.505ZM132.387 67.2422H135.307L133.847 63.4971L132.387 67.2422ZM145.957 71V61.6055H149.232C150.375 61.6055 151.189 61.798 151.676 62.1831C152.167 62.564 152.412 63.203 152.412 64.1001C152.412 65.1157 152.084 65.9071 151.429 66.4741C150.777 67.0369 149.863 67.3184 148.686 67.3184H147.874V71H145.957ZM147.874 66.0298H148.255C148.923 66.0298 149.45 65.8753 149.835 65.5664C150.225 65.2533 150.419 64.8301 150.419 64.2969C150.419 63.3617 149.825 62.894 148.636 62.894H147.874V66.0298ZM153.681 71L157.337 61.6055H159.293L162.949 71H160.943L159.965 68.4927H156.081L155.103 71H153.681ZM156.563 67.2422H159.483L158.023 63.4971L156.563 67.2422ZM165.062 71V61.6055H168.578C170.487 61.6055 171.441 62.382 171.441 63.9351C171.441 64.5148 171.278 65.0438 170.952 65.522C170.631 65.9959 170.186 66.3599 169.619 66.6138L172.692 71H170.311L167.982 67.1597H166.903V71H165.062ZM166.903 65.8711H167.353C168.771 65.8711 169.48 65.2977 169.48 64.1509C169.48 63.313 168.847 62.894 167.582 62.894H166.903V65.8711ZM177.147 71V62.894H173.783V61.6055H182.473V62.894H179.108V71H177.147ZM184.573 71V61.6055H186.293L190.648 68.0229V61.6055H192.216V71H190.464L186.141 64.5825V71H184.573ZM195.344 71V61.6055H201.216V62.894H197.299V65.5156H200.511V66.7725H197.299V69.667H201.514V71H195.344ZM203.932 71V61.6055H207.448C209.357 61.6055 210.311 62.382 210.311 63.9351C210.311 64.5148 210.148 65.0438 209.822 65.522C209.501 65.9959 209.056 66.3599 208.489 66.6138L211.562 71H209.181L206.852 67.1597H205.773V71H203.932ZM205.773 65.8711H206.223C207.641 65.8711 208.35 65.2977 208.35 64.1509C208.35 63.313 207.717 62.894 206.452 62.894H205.773V65.8711Z" fill="#959595"/>
<path d="M36.5 40.0703C36.5 40.0703 21.1016 55.5914 21.1016 63.7548C21.1016 70.5221 27.9962 76 36.5 76C45.0038 76 51.8984 70.5221 51.8984 63.7548C51.8984 55.5914 36.5 40.0703 36.5 40.0703Z" fill="#E5534D"/>
<path d="M36.5 38.9297C36.5 38.9297 21.1016 23.4086 21.1016 15.2452C21.1016 8.47785 27.9962 3 36.5 3C45.0038 3 51.8984 8.47785 51.8984 15.2452C51.8984 23.4086 36.5 38.9297 36.5 38.9297Z" fill="#E5534D"/>
<path d="M37.0703 39.5C37.0703 39.5 52.5914 54.8984 60.7548 54.8984C67.5221 54.8984 73 48.0038 73 39.5C73 30.9962 67.5221 24.1016 60.7548 24.1016C52.5914 24.1016 37.0703 39.5 37.0703 39.5Z" fill="#E5534D"/>
<path d="M35.9297 39.5C35.9297 39.5 20.4086 54.8984 12.2452 54.8984C5.47785 54.8984 0 48.0038 0 39.5C0 30.9962 5.47785 24.1016 12.2452 24.1016C20.4086 24.1016 35.9297 39.5 35.9297 39.5Z" fill="#E5534D"/>
</svg>
