<svg width="328" height="73" viewBox="0 0 328 73" fill="none" xmlns="http://www.w3.org/2000/svg">
<path d="M122.374 54.1455C117.849 55.3174 113.943 55.9033 110.655 55.9033C104.422 55.9033 99.6283 54.2676 96.2754 50.9961C92.9388 47.7083 91.2705 43.0046 91.2705 36.8848C91.2705 30.8138 92.9388 26.1426 96.2754 22.8711C99.6283 19.5996 104.397 17.9639 110.582 17.9639C114.537 17.9639 118.46 18.4277 122.35 19.3555V25.2393C117.841 23.693 114.138 22.9199 111.241 22.9199C107.416 22.9199 104.462 24.1406 102.379 26.582C100.296 29.0234 99.2539 32.4821 99.2539 36.958C99.2539 41.2874 100.369 44.6891 102.599 47.1631C104.828 49.6208 107.905 50.8496 111.827 50.8496C112.69 50.8496 113.699 50.7275 114.854 50.4834V38.5938H122.374V54.1455ZM159.679 54.1455C155.154 55.3174 151.248 55.9033 147.96 55.9033C141.726 55.9033 136.933 54.2676 133.58 50.9961C130.243 47.7083 128.575 43.0046 128.575 36.8848C128.575 30.8138 130.243 26.1426 133.58 22.8711C136.933 19.5996 141.702 17.9639 147.887 17.9639C151.842 17.9639 155.764 18.4277 159.654 19.3555V25.2393C155.146 23.693 151.443 22.9199 148.546 22.9199C144.721 22.9199 141.767 24.1406 139.684 26.582C137.6 29.0234 136.559 32.4821 136.559 36.958C136.559 41.2874 137.674 44.6891 139.903 47.1631C142.133 49.6208 145.209 50.8496 149.132 50.8496C149.994 50.8496 151.004 50.7275 152.159 50.4834V38.5938H159.679V54.1455ZM168.126 55V18.8672H180.724C185.118 18.8672 188.251 19.6077 190.123 21.0889C192.011 22.5537 192.955 25.0114 192.955 28.4619C192.955 32.3682 191.694 35.4118 189.171 37.5928C186.664 39.7575 183.149 40.8398 178.624 40.8398H175.499V55H168.126ZM175.499 35.8838H176.964C179.535 35.8838 181.562 35.2897 183.043 34.1016C184.54 32.8971 185.289 31.2695 185.289 29.2188C185.289 25.6217 183.002 23.8232 178.429 23.8232H175.499V35.8838ZM210.045 55.6104C205.862 55.6104 202.534 54.349 200.06 51.8262C197.602 49.2871 196.373 45.8773 196.373 41.5967C196.373 37.2673 197.61 33.8493 200.084 31.3428C202.574 28.8363 205.951 27.583 210.216 27.583C214.496 27.583 217.874 28.8363 220.348 31.3428C222.838 33.8493 224.083 37.251 224.083 41.5479C224.083 45.9424 222.838 49.3848 220.348 51.875C217.857 54.3652 214.423 55.6104 210.045 55.6104ZM210.167 51.0938C214.317 51.0938 216.393 47.9118 216.393 41.5479C216.393 38.6344 215.839 36.3314 214.732 34.6387C213.642 32.946 212.136 32.0996 210.216 32.0996C208.312 32.0996 206.806 32.946 205.699 34.6387C204.609 36.3314 204.063 38.6507 204.063 41.5967C204.063 44.5101 204.609 46.8213 205.699 48.5303C206.79 50.2393 208.279 51.0938 210.167 51.0938ZM230.724 55V16.4502H237.95V40.6934H238.414L247.96 28.1934H253.966L245.152 39.668L256.725 55H247.936L238.414 41.5967H237.95V55H230.724ZM284.19 54.0967C280.756 55.1058 277.501 55.6104 274.425 55.6104C269.949 55.6104 266.417 54.3408 263.829 51.8018C261.241 49.2627 259.947 45.7959 259.947 41.4014C259.947 37.251 261.127 33.9144 263.487 31.3916C265.864 28.8525 268.997 27.583 272.887 27.583C276.809 27.583 279.674 28.82 281.48 31.2939C283.287 33.7679 284.19 37.6823 284.19 43.0371H267.564C268.053 48.1478 270.86 50.7031 275.987 50.7031C278.412 50.7031 281.147 50.1416 284.19 49.0186V54.0967ZM267.467 38.96H277.086C277.086 34.3864 275.613 32.0996 272.667 32.0996C269.672 32.0996 267.939 34.3864 267.467 38.96ZM291.661 55V28.1934H298.888V33.2471C300.759 29.471 303.608 27.583 307.433 27.583C307.888 27.583 308.336 27.6318 308.775 27.7295V34.1748C307.75 33.8005 306.798 33.6133 305.919 33.6133C303.038 33.6133 300.694 35.07 298.888 37.9834V55H291.661Z" fill="#EFEFEF"/>
<path d="M36.5 37.0703C36.5 37.0703 21.1016 52.5914 21.1016 60.7548C21.1016 67.5221 27.9962 73 36.5 73C45.0038 73 51.8984 67.5221 51.8984 60.7548C51.8984 52.5914 36.5 37.0703 36.5 37.0703Z" fill="#F84445"/>
<path d="M36.5 35.9297C36.5 35.9297 21.1016 20.4086 21.1016 12.2452C21.1016 5.47785 27.9962 0 36.5 0C45.0038 0 51.8984 5.47785 51.8984 12.2452C51.8984 20.4086 36.5 35.9297 36.5 35.9297Z" fill="#F84445"/>
<path d="M37.0703 36.5C37.0703 36.5 52.5914 51.8984 60.7548 51.8984C67.5221 51.8984 73 45.0038 73 36.5C73 27.9962 67.5221 21.1016 60.7548 21.1016C52.5914 21.1016 37.0703 36.5 37.0703 36.5Z" fill="#F84445"/>
<path d="M35.9297 36.5C35.9297 36.5 20.4086 51.8984 12.2452 51.8984C5.47785 51.8984 0 45.0038 0 36.5C0 27.9962 5.47785 21.1016 12.2452 21.1016C20.4086 21.1016 35.9297 36.5 35.9297 36.5Z" fill="#F84445"/>
</svg>
